<?xml version="1.0" encoding="utf-8"?>
<!-- Generator: Adobe Illustrator 23.0.2, SVG Export Plug-In . SVG Version: 6.00 Build 0)  -->
<svg version="1.1" id="Ebene_1" xmlns="http://www.w3.org/2000/svg" xmlns:xlink="http://www.w3.org/1999/xlink" x="0px" y="0px"
	 viewBox="0 0 873.8 722.2" style="enable-background:new 0 0 873.8 722.2;" xml:space="preserve">
<style type="text/css">
	
		.st0{clip-path:url(#SVGID_2_);fill:none;stroke:#1B181D;stroke-width:3.3;stroke-linecap:round;stroke-linejoin:round;stroke-miterlimit:10;}
	.st1{fill:#1B181D;}
	.st2{clip-path:url(#SVGID_4_);fill:#1B181D;}
	.st3{clip-path:url(#SVGID_6_);fill:#1B181D;}
	.st4{clip-path:url(#SVGID_8_);fill:#1B181D;}
	.st5{clip-path:url(#SVGID_10_);fill:#1B181D;}
</style>
<g>
	<g>
		<defs>
			<rect id="SVGID_1_" width="873.8" height="722.2"/>
		</defs>
		<clipPath id="SVGID_2_">
			<use xlink:href="#SVGID_1_"  style="overflow:visible;"/>
		</clipPath>
		<path class="st0" d="M9.3,434.2V3.1h109.5c119.1,0,204.5,96.6,204.5,215.7S207.5,434.2,88.4,434.2h-7.5 M26,434.2V20.6h91.5
			c109.3,0,187.1,88.9,187.1,198.2c0,109-107.6,197.6-216.4,198.2h-7.3 M42.7,434.2V38h73.5c100.1,0,169.6,80.7,169.6,180.8
			c0,99.3-98.5,179.7-197.4,181.1h-7.5 M59.3,434.2V55.4h55.5C205,55.4,267,128.6,267,218.8c0,88.9-90.7,161.8-179.1,164h-7
			 M582.9,436.5L707.3,107 M603.6,436.3l103.7-277 M707.3,54.8L562.2,436.6 M767,262.4L707.3,107 M747,262.4l-39.7-103.1
			 M807.4,262.3L707.4,2.5l0,0L541.7,436.3 M707.4,54.8l79.7,207.5 M534,397.1H383.9V1.9 M520.3,434.3H345.6V1.9 M527,416H364.8V1.9
			 M403.1,1.9v376.3h138.5 M831.6,434.1l-43.4-116H671.6 M811.5,434.2l-35.9-97.8H664.5 M872,434.2l-57.8-152.6H685.7 M851.8,434.2
			L801,299.9H678.5"/>
	</g>
</g>
<path class="st1" d="M51.6,623.8L75.4,681H27.8L51.6,623.8z M46.6,611.7L0,719.4h12l11.7-28.3h55.7l11.9,28.3h12.2L57.2,611.6H46.6
	V611.7z"/>
<g>
	<g>
		<defs>
			<rect id="SVGID_3_" width="873.8" height="722.2"/>
		</defs>
		<clipPath id="SVGID_4_">
			<use xlink:href="#SVGID_3_"  style="overflow:visible;"/>
		</clipPath>
		<path class="st2" d="M200,701.9c-1.8,2.7-4,5.3-6.6,7.8c-2.6,2.4-5.6,4.6-9,6.4c-3.4,1.9-7.2,3.3-11.3,4.4
			c-4.1,1.1-8.6,1.6-13.5,1.6c-8.1,0-15.6-1.4-22.5-4.3c-6.9-2.8-12.8-6.8-17.8-11.8s-8.9-11-11.6-17.9c-2.8-6.9-4.2-14.5-4.2-22.7
			s1.4-15.8,4.3-22.7c2.8-6.9,6.8-12.9,11.8-17.9s11-9,17.8-11.8c6.9-2.8,14.3-4.3,22.3-4.3c4,0,7.8,0.4,11.6,1.2s7.4,2,10.7,3.5
			c3.4,1.5,6.4,3.3,9.1,5.4c2.7,2.1,5,4.5,6.9,7.1l-9.1,6.7c-1.1-1.7-2.6-3.5-4.5-5.2s-4.1-3.2-6.6-4.6c-2.5-1.3-5.3-2.4-8.3-3.2
			s-6.2-1.2-9.7-1.2c-7,0-13.3,1.3-18.8,3.8s-10.2,5.9-14.1,10.2c-3.9,4.3-6.8,9.3-8.8,14.9c-2,5.7-3,11.6-3,17.9
			c0,6.3,1,12.2,3.1,17.9s5,10.6,8.9,14.9c3.9,4.3,8.5,7.7,14.1,10.2c5.5,2.5,11.7,3.8,18.7,3.8c6.2,0,12.1-1.3,17.7-3.8
			c5.6-2.5,10.3-6.6,14-12.2L200,701.9z"/>
	</g>
</g>
<path class="st1" d="M216.3,719.4h-12l46.5-107.7h10.7l46.3,107.7h-12.2l-11.9-28.3H228L216.3,719.4z M232.1,681.1h47.5l-23.8-57.3
	L232.1,681.1z"/>
<g>
	<g>
		<defs>
			<rect id="SVGID_5_" width="873.8" height="722.2"/>
		</defs>
		<clipPath id="SVGID_6_">
			<use xlink:href="#SVGID_5_"  style="overflow:visible;"/>
		</clipPath>
		<path class="st3" d="M321.1,611.7h35.8c6.7,0,13.4,1.1,20.2,3.3c6.7,2.2,12.8,5.6,18.3,10.1c5.4,4.5,9.8,10.2,13.2,16.9
			c3.4,6.8,5,14.6,5,23.5c0,9-1.7,16.9-5,23.6c-3.4,6.7-7.7,12.3-13.2,16.8c-5.4,4.5-11.5,7.9-18.3,10.1c-6.8,2.2-13.5,3.3-20.2,3.3
			h-35.8V611.7z M332.1,709.7h21.8c8.1,0,15.2-1.3,21.2-3.8s11-5.9,15-10s6.9-8.8,8.9-14.1s3-10.7,3-16.3s-1-11-3-16.3
			s-4.9-10-8.9-14.1s-9-7.4-15-10c-6-2.5-13.1-3.8-21.2-3.8h-21.8V709.7z"/>
	</g>
</g>
<polygon class="st1" points="442.4,709.7 500.1,709.7 500.1,719.5 431.5,719.5 431.5,611.7 498.3,611.7 498.3,621.4 442.4,621.4 
	442.4,658.4 494.7,658.4 494.7,668.1 442.4,668.1 "/>
<polygon class="st1" points="574.9,700.9 575,700.9 611.1,611.7 627.9,611.7 627.9,719.4 616.9,719.4 616.9,625.8 616.6,625.8 
	577.6,719.4 571.9,719.4 532.9,625.8 532.6,625.8 532.6,719.4 521.6,719.4 521.6,611.7 538.4,611.7 "/>
<polygon class="st1" points="693.5,719.4 682.5,719.4 682.5,673 642.2,611.7 655.9,611.7 688.3,663.9 721.1,611.7 733.8,611.7 
	693.5,673 "/>
<g>
	<g>
		<defs>
			<rect id="SVGID_7_" width="873.8" height="722.2"/>
		</defs>
		<clipPath id="SVGID_8_">
			<use xlink:href="#SVGID_7_"  style="overflow:visible;"/>
		</clipPath>
		<path class="st4" d="M7.9,479.1h35.8c6.7,0,13.4,1.1,20.2,3.3c6.8,2.2,12.8,5.6,18.3,10.1c5.4,4.5,9.8,10.2,13.2,16.9
			c3.3,6.8,5,14.6,5,23.5c0,9-1.7,16.9-5,23.6c-3.4,6.7-7.7,12.3-13.2,16.8c-5.4,4.5-11.5,7.9-18.3,10.1c-6.7,2.2-13.5,3.3-20.2,3.3
			H7.9V479.1z M18.8,577.1h21.8c8.1,0,15.2-1.3,21.2-3.8s11-5.9,15-10s6.9-8.8,8.9-14.1s3-10.7,3-16.3s-1-11-3-16.3
			s-4.9-10-8.9-14.1s-9-7.4-15-10c-6-2.5-13.1-3.8-21.2-3.8H18.8V577.1z"/>
	</g>
</g>
<path class="st1" d="M113.8,586.8h-12L148.4,479h10.7l46.3,107.8h-12.2l-11.9-28.3h-55.7L113.8,586.8z M129.6,548.5h47.5l-23.8-57.2
	L129.6,548.5z"/>
<polygon class="st1" points="244.1,586.8 233.1,586.8 233.1,540.4 192.8,479.1 206.5,479.1 238.9,531.3 271.6,479.1 284.4,479.1 
	244.1,540.4 "/>
<polygon class="st1" points="309.7,577.1 359.9,577.1 359.9,586.8 298.7,586.8 298.7,479.1 309.7,479.1 "/>
<g>
	<g>
		<defs>
			<rect id="SVGID_9_" width="873.8" height="722.2"/>
		</defs>
		<clipPath id="SVGID_10_">
			<use xlink:href="#SVGID_9_"  style="overflow:visible;"/>
		</clipPath>
		<path class="st5" d="M495.3,498.5c-3.8-4-8.2-7-13.4-9.2s-11.1-3.3-17.8-3.3c-6.9,0-13.1,1.3-18.7,3.8c-5.5,2.5-10.2,6-14.1,10.3
			s-6.8,9.3-8.9,15s-3.1,11.7-3.1,17.9c0,6.3,1,12.3,3.1,17.9c2.1,5.7,5,10.6,8.9,14.9c3.9,4.3,8.5,7.7,14.1,10.2
			c5.5,2.5,11.7,3.8,18.7,3.8c6.1,0,11.7-0.7,16.7-2c5.1-1.3,9.2-3,12.3-5v-32.7H468v-9.7h36.1v48.7c-5.9,3.6-12.2,6.2-19,7.9
			s-13.9,2.6-21.2,2.6c-8.1,0-15.6-1.4-22.5-4.3c-6.9-2.8-12.8-6.8-17.8-11.8s-8.9-11-11.6-17.9c-2.8-6.9-4.2-14.5-4.2-22.7
			s1.4-15.8,4.3-22.7c2.8-6.9,6.8-12.9,11.8-17.9s11-9,17.8-11.8c6.9-2.8,14.3-4.3,22.3-4.3c8.6,0,16.1,1.3,22.5,3.9
			c6.4,2.6,11.9,6.2,16.4,10.7L495.3,498.5z"/>
	</g>
</g>
<polygon class="st1" points="527.2,479.1 538.1,479.1 538.1,525.8 596.9,525.8 596.9,479.1 607.9,479.1 607.9,586.8 596.9,586.8 
	596.9,535.8 538.1,535.8 538.1,586.8 527.2,586.8 "/>
<polygon class="st1" points="673.5,586.8 662.6,586.8 662.6,488.8 626.5,488.8 626.5,479.1 709.6,479.1 709.6,488.8 673.5,488.8 "/>
<rect x="376.4" y="479.1" class="st1" width="11" height="107.8"/>
</svg>
